<svg xmlns="http://www.w3.org/2000/svg" xmlns:xlink="http://www.w3.org/1999/xlink" width="902" zoomAndPan="magnify" viewBox="0 0 676.5 676.499979" height="902" preserveAspectRatio="xMidYMid meet" version="1.0"><defs><clipPath id="4dc3169284"><path d="M 0 0 L 675.738281 0 L 675.738281 675.738281 L 0 675.738281 Z M 0 0 " clip-rule="nonzero"/></clipPath><clipPath id="ab15786f26"><path d="M 337.871094 0 C 151.269531 0 0 151.269531 0 337.871094 C 0 524.46875 151.269531 675.738281 337.871094 675.738281 C 524.46875 675.738281 675.738281 524.46875 675.738281 337.871094 C 675.738281 151.269531 524.46875 0 337.871094 0 Z M 337.871094 0 " clip-rule="nonzero"/></clipPath><clipPath id="0377527876"><path d="M 76.429688 77.855469 L 532 77.855469 L 532 598 L 76.429688 598 Z M 76.429688 77.855469 " clip-rule="nonzero"/></clipPath><clipPath id="96a69bedf0"><path d="M 458.796875 98.46875 C 389.332031 56.304688 321.722656 86.011719 285.835938 123.339844 L 76.429688 341.605469 L 285.089844 555.265625 C 323.691406 589.984375 364.636719 603.292969 410.234375 595.902344 C 473.304688 585.691406 522.238281 533.71875 529.226562 469.511719 C 533.46875 430.132812 522.324219 392.089844 497.652344 362.402344 C 491.011719 354.410156 483.59375 347.269531 475.527344 341.042969 C 484.710938 333.65625 493.113281 324.996094 500.558594 315.203125 C 526.503906 281.0625 536.804688 237.601562 528.792969 195.855469 C 521.15625 156.320312 495.652344 120.832031 458.796875 98.46875 Z M 458.796875 98.46875 " clip-rule="nonzero"/></clipPath><clipPath id="764fe2f051"><path d="M 261 379 L 454 379 L 454 521 L 261 521 Z M 261 379 " clip-rule="nonzero"/></clipPath><clipPath id="fbffbb9a87"><path d="M 226.15625 438.28125 L 295.980469 320.945312 L 479.542969 430.179688 L 409.71875 547.515625 Z M 226.15625 438.28125 " clip-rule="nonzero"/></clipPath><clipPath id="fb31941115"><path d="M 226.15625 438.28125 L 295.980469 320.945312 L 479.542969 430.179688 L 409.71875 547.515625 Z M 226.15625 438.28125 " clip-rule="nonzero"/></clipPath><clipPath id="670bac1f80"><path d="M 260 161 L 454 161 L 454 302 L 260 302 Z M 260 161 " clip-rule="nonzero"/></clipPath><clipPath id="8a36672ba8"><path d="M 295.007812 360.511719 L 226.324219 242.5 L 410.941406 135.058594 L 479.621094 253.066406 Z M 295.007812 360.511719 " clip-rule="nonzero"/></clipPath><clipPath id="2b5f0b6ea9"><path d="M 295.007812 360.511719 L 226.324219 242.5 L 410.941406 135.058594 L 479.621094 253.066406 Z M 295.007812 360.511719 " clip-rule="nonzero"/></clipPath></defs><g clip-path="url(#4dc3169284)"><g clip-path="url(#ab15786f26)"><path fill="#3431c4" d="M 0 0 L 675.738281 0 L 675.738281 675.738281 L 0 675.738281 Z M 0 0 " fill-opacity="1" fill-rule="nonzero"/></g></g><g clip-path="url(#0377527876)"><g clip-path="url(#96a69bedf0)"><path fill="#ffffff" d="M 531.453125 77.855469 L 531.453125 598.640625 L 76.429688 598.640625 L 76.429688 77.855469 Z M 531.453125 77.855469 " fill-opacity="1" fill-rule="nonzero"/></g></g><g clip-path="url(#764fe2f051)"><g clip-path="url(#fbffbb9a87)"><g clip-path="url(#fb31941115)"><path fill="#3431c4" d="M 359.394531 380.847656 L 261.167969 379.453125 L 309.238281 465.128906 C 315.601562 477.121094 333.492188 502.132812 346.296875 509.75 C 381.308594 530.585938 425.351562 521.136719 444.679688 488.65625 C 464.015625 456.164062 451.316406 412.949219 416.300781 392.113281 C 403.5 384.492188 372.96875 380.71875 359.394531 380.847656 Z M 359.394531 380.847656 " fill-opacity="1" fill-rule="nonzero"/></g></g></g><g clip-path="url(#670bac1f80)"><g clip-path="url(#8a36672ba8)"><g clip-path="url(#2b5f0b6ea9)"><path fill="#3431c4" d="M 309.476562 216.199219 L 260.585938 301.363281 L 358.792969 300.933594 C 372.359375 301.195312 402.898438 297.695312 415.773438 290.203125 C 450.972656 269.71875 464.089844 226.644531 445.085938 193.988281 C 426.074219 161.320312 382.140625 151.445312 346.941406 171.933594 C 334.070312 179.425781 315.953125 204.273438 309.476562 216.199219 Z M 309.476562 216.199219 " fill-opacity="1" fill-rule="nonzero"/></g></g></g></svg>